<svg width="91" height="65" viewBox="0 0 91 65" fill="none" xmlns="http://www.w3.org/2000/svg">
<path d="M34.4983 5.42006C34.4983 4.14472 33.5418 3.50705 44.8605 3.50705C56.1792 3.50705 55.5415 5.42006 55.5415 5.42006V12.1156C55.5415 12.1156 54.1121 8.84607 52.3531 8.92726C50.8554 8.99639 50.6692 12.3958 49.4836 11.4779C48.6822 10.8575 49.7797 9.58104 49.0054 8.92726C47.8548 7.95588 47.1443 10.6012 45.6576 10.8403C44.1507 11.0826 41.8315 10.0432 41.8315 10.0432C41.8315 10.0432 42.1839 12.1156 41.3533 12.1156C40.5227 12.1156 38.4838 9.56493 38.4838 9.56493C38.4838 9.56493 37.0182 7.43519 35.4548 8.92726C34.5144 9.82477 34.4983 12.1156 34.4983 12.1156C34.4983 12.1156 34.4984 8.03484 34.4983 5.42006Z" fill="#4A1B18"/>
<path d="M28.4516 15.4458C28.4516 13.2258 26.9608 12.1158 44.6025 12.1158C62.2443 12.1158 61.2504 15.4458 61.2504 15.4458V27.1011C61.2504 27.1011 59.0225 21.4096 56.2808 21.551C53.9464 21.6713 53.6562 27.5888 51.8083 25.991C50.5592 24.9111 52.2699 22.689 51.0629 21.551C49.2695 19.86 48.1621 24.4649 45.8449 24.881C43.4962 25.3028 39.8815 23.4935 39.8815 23.4935C39.8815 23.4935 40.4307 27.1011 39.1361 27.1011C37.8415 27.1011 34.6635 22.661 34.6635 22.661C34.6635 22.661 32.3792 18.9537 29.9425 21.551C28.4767 23.1133 28.4516 27.1011 28.4516 27.1011C28.4516 27.1011 28.4517 19.9975 28.4516 15.4458Z" fill="#DB0E5D"/>
<path d="M23.6785 30.4311C23.6784 28.2111 21.739 27.1011 44.6903 27.1011C67.6417 27.1011 66.3487 30.4311 66.3487 30.4311V42.0864C66.3487 42.0864 63.4503 36.3949 59.8835 36.5363C56.8464 36.6566 56.4688 42.5741 54.0648 40.9763C52.4398 39.8964 54.6653 37.6743 53.095 36.5363C50.762 34.8453 49.3212 39.4502 46.3066 39.8663C43.251 40.2881 38.5484 38.4788 38.5484 38.4788C38.5484 38.4788 39.2629 42.0864 37.5786 42.0864C35.8944 42.0864 31.76 37.6463 31.76 37.6463C31.76 37.6463 28.7882 33.9389 25.618 36.5363C23.7111 38.0986 23.6785 42.0864 23.6785 42.0864C23.6785 42.0864 23.6786 34.9828 23.6785 30.4311Z" fill="#4A1B18"/>
<circle cx="45.4782" cy="2.23195" r="1.11593" fill="#DB0E5D"/>
<path d="M44.5218 0.15954L45 0.00012207C45 0.00012207 45.2514 0.367687 45.3189 0.637794C45.3944 0.939782 45.3189 1.43488 45.3189 1.43488H44.8406C44.8406 1.43488 44.8946 1.04031 44.8406 0.797212C44.7802 0.525422 44.5218 0.15954 44.5218 0.15954Z" fill="#DB0E5D"/>
<rect x="25.2321" y="43.0431" width="40.1733" height="0.637672" rx="0.318836" fill="#DB0E5D"/>
<rect x="36.3914" y="44.6369" width="20.7243" height="0.637672" rx="0.318836" fill="#4A1B18"/>
<rect x="42.1304" y="46.2313" width="9.88391" height="0.637672" rx="0.318836" fill="#DB0E5D"/>
<path d="M13.6594 52.0113C13.6525 52.0626 13.6303 52.1037 13.5926 52.1345C13.555 52.1653 13.5122 52.1807 13.4643 52.1807C13.4574 52.1807 13.4454 52.1807 13.4283 52.1807C13.4112 52.1773 13.3718 52.1756 13.3102 52.1756C13.2452 52.1756 13.1613 52.1824 13.0586 52.1961C12.9593 52.2098 12.848 52.2389 12.7248 52.2834C12.605 52.3245 12.4783 52.3861 12.3448 52.4683C12.2147 52.5505 12.0863 52.6617 11.9597 52.8021C11.833 52.939 11.7132 53.1102 11.6002 53.3156C11.4872 53.5176 11.3914 53.7623 11.3126 54.0499C11.2716 54.1937 11.2236 54.4008 11.1689 54.6713C11.1175 54.9383 11.061 55.2395 10.9994 55.575C10.9412 55.9105 10.8813 56.2683 10.8197 56.6483C10.7615 57.0283 10.705 57.4014 10.6502 57.7677C10.5989 58.134 10.5509 58.4832 10.5064 58.8153C10.4619 59.1439 10.4277 59.4264 10.4037 59.6626C10.3969 59.7071 10.3763 59.7464 10.3421 59.7807C10.3113 59.8183 10.2719 59.8372 10.224 59.8372C10.1761 59.8372 10.1333 59.8252 10.0956 59.8012C10.0614 59.7773 10.0374 59.7413 10.0237 59.6934C9.97923 59.5291 9.90905 59.3014 9.81319 59.0104C9.71734 58.7194 9.60607 58.3925 9.47941 58.0296C9.35617 57.6633 9.22094 57.2747 9.07374 56.8639C8.92653 56.4531 8.77932 56.0475 8.63212 55.6469C8.48833 55.243 8.34797 54.8578 8.21104 54.4915C8.07752 54.1218 7.95942 53.7966 7.85671 53.5159C7.8396 53.7076 7.81221 53.9215 7.77455 54.1577C7.74032 54.3905 7.69239 54.6422 7.63077 54.9126C7.57257 55.1796 7.49897 55.4638 7.40996 55.765C7.32095 56.0629 7.21483 56.3727 7.09158 56.6945C6.89987 57.1875 6.67393 57.6085 6.41375 57.9577C6.15699 58.3069 5.88655 58.5979 5.6024 58.8307C5.31826 59.0635 5.02898 59.2483 4.73457 59.3853C4.44358 59.5188 4.16971 59.6198 3.91295 59.6883C3.6562 59.7567 3.42512 59.7995 3.21971 59.8166C3.01431 59.8372 2.85683 59.8474 2.74728 59.8474C2.37071 59.8474 2.02323 59.7978 1.70486 59.6985C1.3899 59.5992 1.11603 59.4589 0.883239 59.2774C0.65387 59.0926 0.474142 58.8735 0.344052 58.6201C0.217386 58.3634 0.154053 58.081 0.154053 57.7729C0.154053 57.4956 0.215675 57.2371 0.338917 56.9975C0.465583 56.7544 0.63333 56.5439 0.842158 56.3658C1.05441 56.1878 1.29576 56.0475 1.56621 55.9448C1.84008 55.8421 2.12422 55.7907 2.41864 55.7907C2.6617 55.7907 2.87908 55.8147 3.07079 55.8626C3.26593 55.9105 3.4371 55.9721 3.58431 56.0475C3.73494 56.1194 3.86331 56.1981 3.96944 56.2837C4.07899 56.3693 4.168 56.4514 4.23646 56.5302C4.30836 56.6055 4.36142 56.6705 4.39565 56.7253C4.43331 56.7801 4.45556 56.8126 4.46241 56.8229C4.4761 56.8502 4.48295 56.8811 4.48295 56.9153C4.48295 56.9632 4.46412 57.0077 4.42646 57.0488C4.39223 57.0899 4.34601 57.1104 4.28782 57.1104C4.2125 57.1104 4.15601 57.0762 4.11836 57.0077C4.11493 56.9975 4.0807 56.9495 4.01565 56.8639C3.95403 56.7749 3.85647 56.6791 3.72295 56.5764C3.59286 56.4737 3.42341 56.3812 3.21458 56.2991C3.00575 56.2135 2.75242 56.1707 2.45458 56.1707C2.21152 56.1707 1.97359 56.2118 1.7408 56.2939C1.51143 56.3761 1.30774 56.4891 1.12972 56.6329C0.951707 56.7766 0.807924 56.9478 0.698375 57.1464C0.592249 57.3415 0.539186 57.5538 0.539186 57.7831C0.539186 58.033 0.597384 58.2624 0.71378 58.4712C0.830176 58.6766 0.987652 58.8529 1.18621 59.0001C1.38819 59.1474 1.62098 59.262 1.88458 59.3442C2.15161 59.4229 2.43575 59.4623 2.73701 59.4623C2.85341 59.4623 3.00746 59.4537 3.19917 59.4366C3.39088 59.4195 3.60485 59.3801 3.84106 59.3185C4.0807 59.2569 4.33232 59.1645 4.59592 59.0412C4.85952 58.9146 5.1197 58.7434 5.37646 58.5277C5.63321 58.312 5.87799 58.0433 6.11078 57.7215C6.34699 57.3997 6.55411 57.0094 6.73213 56.5507C6.91699 56.0783 7.06077 55.6298 7.16348 55.2053C7.2696 54.7774 7.34834 54.3922 7.39969 54.0499C7.45104 53.7076 7.48185 53.4166 7.49212 53.1769C7.50582 52.9339 7.51266 52.761 7.51266 52.6583V52.5556C7.51266 52.5008 7.52978 52.4546 7.56401 52.4169C7.60167 52.3759 7.6496 52.3553 7.7078 52.3553C7.79338 52.3553 7.85329 52.3981 7.88753 52.4837C7.8978 52.5077 7.92689 52.5881 7.97482 52.725C8.02617 52.862 8.09122 53.04 8.16996 53.2591C8.25212 53.4748 8.34455 53.7247 8.44725 54.0088C8.55338 54.293 8.66464 54.5959 8.78103 54.9177C8.89743 55.2361 9.01725 55.5665 9.14049 55.9088C9.26373 56.2512 9.38355 56.5884 9.49995 56.9204C9.61977 57.2525 9.73274 57.5726 9.83887 57.8807C9.94499 58.1888 10.0408 58.4695 10.1264 58.7229C10.1641 58.449 10.2052 58.1597 10.2497 57.855C10.2942 57.5469 10.3404 57.2371 10.3883 56.9256C10.4397 56.6106 10.4893 56.3025 10.5372 56.0012C10.5886 55.7 10.6382 55.4176 10.6862 55.154C10.7375 54.8903 10.7837 54.6541 10.8248 54.4453C10.8659 54.2365 10.9035 54.0687 10.9378 53.9421C11.0131 53.6408 11.1209 53.3601 11.2613 53.0999C11.4017 52.8363 11.5711 52.6069 11.7697 52.4118C11.9716 52.2167 12.201 52.0643 12.4578 51.9548C12.718 51.8418 13.0055 51.7853 13.3205 51.7853C13.4403 51.7853 13.5259 51.799 13.5772 51.8264C13.632 51.8538 13.6594 51.9069 13.6594 51.9856V52.0113ZM12.6734 59.1696C12.7453 59.2689 12.8378 59.3493 12.9507 59.411C13.0637 59.4692 13.2024 59.4983 13.3667 59.4983C13.5344 59.4983 13.6868 59.4589 13.8237 59.3801C13.9606 59.298 14.0856 59.1919 14.1986 59.0618C14.3115 58.9317 14.4125 58.7862 14.5015 58.6253C14.5906 58.4644 14.671 58.3035 14.7429 58.1426C14.76 58.1049 14.784 58.0775 14.8148 58.0604C14.8456 58.0399 14.8798 58.0296 14.9175 58.0296C14.9757 58.0296 15.0219 58.0502 15.0561 58.0912C15.0938 58.1323 15.1126 58.1768 15.1126 58.2247C15.1126 58.2419 15.1109 58.2573 15.1075 58.271C15.1041 58.2812 15.0989 58.2932 15.0921 58.3069C14.8559 58.8273 14.5974 59.2192 14.3167 59.4828C14.0394 59.7464 13.7244 59.8817 13.3718 59.8885C13.1459 59.8885 12.9507 59.844 12.7864 59.755C12.6221 59.6694 12.4869 59.5582 12.3807 59.4212C12.2746 59.2809 12.1959 59.1234 12.1445 58.9488C12.0932 58.7742 12.0675 58.5996 12.0675 58.425C12.0675 58.2504 12.088 58.0895 12.1291 57.9423C12.1736 57.7951 12.2352 57.6667 12.314 57.5572C12.3961 57.4476 12.492 57.362 12.6016 57.3004C12.7145 57.2388 12.8378 57.208 12.9713 57.208C13.05 57.208 13.127 57.2251 13.2024 57.2593C13.2811 57.2902 13.3513 57.3364 13.4129 57.398C13.4745 57.4562 13.5242 57.5281 13.5618 57.6137C13.5995 57.6993 13.6183 57.7968 13.6183 57.9064C13.6183 58.0467 13.5943 58.1785 13.5464 58.3018C13.4985 58.425 13.4317 58.5397 13.3461 58.6458C13.264 58.7519 13.1647 58.8495 13.0483 58.9385C12.9319 59.0275 12.807 59.1046 12.6734 59.1696ZM12.5194 58.8358C12.6255 58.7913 12.7214 58.7348 12.807 58.6664C12.896 58.5979 12.9713 58.5226 13.0329 58.4404C13.0945 58.3583 13.1425 58.2727 13.1767 58.1837C13.2109 58.0912 13.228 57.9988 13.228 57.9064C13.228 57.8037 13.2024 57.7266 13.151 57.6753C13.0997 57.6205 13.0398 57.5931 12.9713 57.5931C12.8789 57.5931 12.8001 57.6188 12.7351 57.6702C12.67 57.7215 12.617 57.7883 12.5759 57.8704C12.5348 57.9526 12.504 58.045 12.4834 58.1477C12.4663 58.247 12.4578 58.3463 12.4578 58.4456C12.4578 58.5072 12.4629 58.5722 12.4732 58.6407C12.4869 58.7092 12.5023 58.7742 12.5194 58.8358ZM15.9342 59.2774C15.9856 59.1747 16.0506 59.0481 16.1294 58.8974C16.2115 58.7434 16.2954 58.5893 16.381 58.4353C16.47 58.2812 16.5556 58.1357 16.6377 57.9988C16.7233 57.8619 16.7952 57.7575 16.8534 57.6856C16.9527 57.5657 17.0554 57.4802 17.1615 57.4288C17.2677 57.3775 17.3652 57.3518 17.4542 57.3518C17.5432 57.3518 17.6186 57.3706 17.6802 57.4083C17.7452 57.4459 17.7983 57.4973 17.8394 57.5623C17.8804 57.6239 17.9113 57.6975 17.9318 57.7831C17.9523 57.8653 17.9626 57.9543 17.9626 58.0502C17.9626 58.1049 17.9592 58.1768 17.9523 58.2658C17.9489 58.3548 17.9438 58.4507 17.9369 58.5534C17.9335 58.6561 17.9284 58.7622 17.9215 58.8718C17.9181 58.9813 17.9147 59.084 17.9113 59.1799C17.9626 59.0772 18.0208 58.9642 18.0858 58.841C18.1509 58.7143 18.2159 58.5893 18.281 58.4661C18.3495 58.3429 18.4145 58.2282 18.4761 58.122C18.5377 58.0125 18.5942 57.9235 18.6456 57.855C18.7928 57.653 18.9297 57.5178 19.0564 57.4493C19.1865 57.3809 19.3012 57.3466 19.4004 57.3466C19.5168 57.3466 19.6127 57.3689 19.688 57.4134C19.7633 57.4545 19.8215 57.5093 19.8626 57.5777C19.9071 57.6428 19.9379 57.7164 19.955 57.7985C19.9721 57.8807 19.9807 57.9594 19.9807 58.0347C19.9807 58.1511 19.9721 58.2727 19.955 58.3993C19.9379 58.526 19.9294 58.6766 19.9294 58.8512C19.9294 58.9231 19.9328 58.995 19.9396 59.0669C19.9465 59.1388 19.9602 59.2021 19.9807 59.2569C20.0047 59.3117 20.0406 59.3562 20.0885 59.3904C20.1365 59.4246 20.2015 59.4418 20.2837 59.4418C20.3727 59.4418 20.46 59.4195 20.5456 59.375C20.6312 59.3271 20.7133 59.2655 20.7921 59.1901C20.8708 59.1148 20.9444 59.0292 21.0129 58.9334C21.0848 58.8375 21.1498 58.7417 21.208 58.6458C21.2662 58.55 21.3175 58.4592 21.362 58.3737C21.4066 58.2847 21.4425 58.2093 21.4699 58.1477C21.487 58.1101 21.511 58.081 21.5418 58.0604C21.5726 58.0399 21.6068 58.0296 21.6445 58.0296C21.7027 58.0296 21.7489 58.0519 21.7831 58.0964C21.8208 58.1374 21.8396 58.182 21.8396 58.2299C21.8396 58.2538 21.8345 58.2778 21.8242 58.3018C21.8105 58.3292 21.7831 58.3874 21.742 58.4764C21.701 58.562 21.6462 58.6612 21.5777 58.7742C21.5093 58.8838 21.4288 59.0001 21.3364 59.1234C21.2474 59.2466 21.1481 59.3613 21.0385 59.4674C20.929 59.5701 20.8109 59.6557 20.6842 59.7242C20.5575 59.7892 20.424 59.8218 20.2837 59.8218C20.133 59.8218 20.0098 59.7944 19.9139 59.7396C19.8215 59.6883 19.7462 59.6181 19.688 59.5291C19.6332 59.4401 19.5956 59.3374 19.575 59.221C19.5545 59.1046 19.5442 58.983 19.5442 58.8564C19.5442 58.6886 19.5528 58.5346 19.5699 58.3942C19.587 58.2504 19.5956 58.1392 19.5956 58.0604C19.5956 57.9748 19.587 57.9098 19.5699 57.8653C19.5562 57.8208 19.5374 57.79 19.5134 57.7729C19.4929 57.7523 19.4723 57.742 19.4518 57.742C19.4312 57.7386 19.4158 57.7369 19.4056 57.7369C19.3234 57.7369 19.2361 57.7831 19.1437 57.8756C19.0547 57.9646 18.9622 58.0844 18.8664 58.235C18.7705 58.3856 18.6713 58.5568 18.5685 58.7485C18.4693 58.9402 18.3683 59.1354 18.2656 59.3339C18.2074 59.4435 18.1577 59.5342 18.1167 59.6061C18.079 59.678 18.0413 59.7345 18.0037 59.7755C17.9695 59.8166 17.9352 59.8457 17.901 59.8628C17.8668 59.88 17.8291 59.8885 17.788 59.8885C17.699 59.8885 17.6305 59.8577 17.5826 59.7961C17.5381 59.7345 17.5159 59.654 17.5159 59.5547C17.5159 59.5034 17.5176 59.4349 17.521 59.3493C17.5244 59.2637 17.5278 59.1696 17.5313 59.0669C17.5347 58.9642 17.5398 58.8581 17.5467 58.7485C17.5535 58.639 17.5586 58.5346 17.5621 58.4353C17.5655 58.3326 17.5689 58.2419 17.5723 58.1631C17.5758 58.0844 17.5775 58.0245 17.5775 57.9834C17.5775 57.8944 17.5621 57.8311 17.5313 57.7934C17.5004 57.7523 17.4645 57.7318 17.4234 57.7318C17.3858 57.7318 17.343 57.7455 17.295 57.7729C17.2505 57.8002 17.1975 57.8533 17.1359 57.932C17.0879 57.9937 17.0263 58.0844 16.951 58.2042C16.8791 58.3206 16.8021 58.4507 16.7199 58.5945C16.6377 58.7383 16.5556 58.8855 16.4734 59.0361C16.3947 59.1867 16.3262 59.3219 16.268 59.4418C16.1961 59.5855 16.1242 59.6831 16.0523 59.7345C15.9805 59.7892 15.9103 59.8166 15.8418 59.8166C15.7425 59.8166 15.6689 59.7875 15.621 59.7293C15.5731 59.6677 15.5491 59.5873 15.5491 59.488C15.5491 59.4777 15.5508 59.4161 15.5542 59.3031C15.5611 59.1901 15.5679 59.0532 15.5748 58.8923C15.5816 58.728 15.5885 58.5534 15.5953 58.3685C15.6056 58.1837 15.6142 58.0108 15.621 57.8499C15.6244 57.7643 15.621 57.6856 15.6107 57.6137C15.6005 57.5418 15.5868 57.499 15.5696 57.4853C15.5423 57.4921 15.4875 57.5555 15.4053 57.6753C15.3266 57.7951 15.2256 58.0039 15.1024 58.3018C15.0852 58.3394 15.0596 58.3685 15.0253 58.3891C14.9911 58.4096 14.9551 58.4199 14.9175 58.4199C14.8593 58.4199 14.8131 58.4011 14.7788 58.3634C14.7446 58.3223 14.7275 58.2761 14.7275 58.2247C14.7275 58.2008 14.7326 58.1751 14.7429 58.1477C14.8969 57.7814 15.0442 57.5127 15.1845 57.3415C15.3249 57.1669 15.4618 57.0796 15.5953 57.0796C15.6741 57.0796 15.7391 57.0984 15.7905 57.1361C15.8452 57.1703 15.888 57.2166 15.9188 57.2747C15.9496 57.3295 15.9719 57.3929 15.9856 57.4647C15.9993 57.5366 16.0061 57.6068 16.0061 57.6753C16.0061 57.98 15.9976 58.259 15.9805 58.5123C15.9668 58.7656 15.9514 59.0207 15.9342 59.2774ZM23.8423 59.1696C23.7567 59.1696 23.6814 59.1628 23.6164 59.1491C23.565 59.2518 23.5034 59.3476 23.4315 59.4366C23.3596 59.5222 23.2757 59.5975 23.1799 59.6626C23.0874 59.7276 22.983 59.779 22.8666 59.8166C22.7502 59.8543 22.6236 59.8731 22.4866 59.8731C22.3257 59.8731 22.1785 59.844 22.045 59.7858C21.9115 59.731 21.7951 59.654 21.6958 59.5547C21.5966 59.452 21.5195 59.3305 21.4648 59.1901C21.41 59.0464 21.3826 58.8889 21.3826 58.7177C21.3826 58.4986 21.422 58.3086 21.5007 58.1477C21.5794 57.9834 21.6702 57.8482 21.7729 57.742C21.8756 57.6325 21.9783 57.552 22.081 57.5007C22.1837 57.4459 22.2607 57.4185 22.312 57.4185C22.3702 57.4185 22.413 57.4339 22.4404 57.4647C22.4712 57.4956 22.4866 57.5366 22.4866 57.588C22.4866 57.6462 22.4678 57.6907 22.4302 57.7215C22.3959 57.7489 22.3514 57.7763 22.2966 57.8037C22.2419 57.8311 22.1837 57.8704 22.122 57.9218C22.0604 57.9697 22.0022 58.0313 21.9475 58.1066C21.8961 58.182 21.8533 58.271 21.8191 58.3737C21.7848 58.4764 21.7677 58.591 21.7677 58.7177C21.7677 58.8307 21.7848 58.9368 21.8191 59.0361C21.8533 59.1319 21.9029 59.2158 21.968 59.2877C22.033 59.3562 22.1101 59.411 22.1991 59.452C22.2881 59.4897 22.3874 59.5085 22.4969 59.5085C22.692 59.5085 22.8529 59.464 22.9796 59.375C23.1097 59.2826 23.209 59.1662 23.2774 59.0258C23.0755 58.9197 22.9094 58.7691 22.7793 58.5739C22.6492 58.3788 22.5842 58.1597 22.5842 57.9166C22.5842 57.7215 22.6304 57.5623 22.7229 57.4391C22.8187 57.3158 22.9437 57.2542 23.0977 57.2542C23.1901 57.2542 23.2774 57.2765 23.3596 57.321C23.4418 57.3655 23.5137 57.4356 23.5753 57.5315C23.6403 57.6274 23.6917 57.7506 23.7293 57.9012C23.767 58.0519 23.7858 58.2316 23.7858 58.4404C23.7858 58.55 23.7721 58.6647 23.7447 58.7845C23.7653 58.7879 23.7858 58.7896 23.8064 58.7896C23.8269 58.7896 23.8492 58.7896 23.8731 58.7896C23.9895 58.7896 24.0939 58.7759 24.1864 58.7485C24.2788 58.7211 24.3627 58.6801 24.438 58.6253C24.5133 58.5705 24.58 58.5003 24.6382 58.4147C24.6999 58.3292 24.7581 58.2299 24.8128 58.1169C24.8231 58.0964 24.8454 58.0775 24.8796 58.0604C24.9138 58.0399 24.9481 58.0296 24.9823 58.0296C25.0268 58.0296 25.0679 58.0484 25.1055 58.0861C25.1466 58.1203 25.1672 58.1665 25.1672 58.2247C25.1672 58.2521 25.1603 58.2829 25.1466 58.3172C25.1329 58.348 25.1192 58.3771 25.1055 58.4045C25.0473 58.5072 24.9789 58.6065 24.9001 58.7023C24.8248 58.7947 24.7341 58.8769 24.628 58.9488C24.5253 59.0173 24.4089 59.072 24.2788 59.1131C24.1487 59.1542 24.0032 59.173 23.8423 59.1696ZM22.9642 57.8756C22.9642 57.9406 22.9728 58.0091 22.9899 58.081C23.007 58.1529 23.0327 58.2247 23.0669 58.2966C23.1046 58.3651 23.1491 58.4319 23.2004 58.4969C23.2552 58.5585 23.3185 58.6116 23.3904 58.6561C23.4007 58.5842 23.4058 58.514 23.4058 58.4456C23.4058 58.3531 23.399 58.259 23.3853 58.1631C23.3716 58.0673 23.351 57.98 23.3237 57.9012C23.2997 57.8191 23.2689 57.754 23.2312 57.7061C23.1936 57.6547 23.1491 57.6291 23.0977 57.6291C23.0772 57.6291 23.0498 57.6445 23.0156 57.6753C22.9813 57.7061 22.9642 57.7729 22.9642 57.8756ZM25.9426 59.2723C25.9973 59.1593 26.0607 59.0361 26.1326 58.9026C26.2045 58.7656 26.2815 58.6287 26.3636 58.4918C26.4458 58.3514 26.5314 58.2128 26.6204 58.0758C26.7128 57.9389 26.8087 57.8088 26.908 57.6856C27.0072 57.5657 27.1065 57.4802 27.2058 57.4288C27.3085 57.374 27.4044 57.3466 27.4934 57.3466C27.6714 57.3466 27.8032 57.4117 27.8888 57.5418C27.9744 57.6719 28.0171 57.8328 28.0171 58.0245C28.0171 58.069 28.0137 58.1238 28.0069 58.1888C28.0035 58.2504 27.9983 58.3172 27.9915 58.3891C27.988 58.461 27.9829 58.5346 27.9761 58.6099C27.9726 58.6818 27.9709 58.7502 27.9709 58.8153C27.9709 58.8974 27.9744 58.9762 27.9812 59.0515C27.9915 59.1268 28.0086 59.1936 28.0326 59.2518C28.0565 59.3065 28.0908 59.351 28.1353 59.3853C28.1798 59.4161 28.238 59.4315 28.3098 59.4315C28.4399 59.4315 28.5666 59.3819 28.6898 59.2826C28.8131 59.1799 28.9261 59.0601 29.0288 58.9231C29.1349 58.7828 29.2256 58.6407 29.3009 58.4969C29.3797 58.3531 29.4379 58.2367 29.4755 58.1477C29.4926 58.1101 29.5166 58.081 29.5474 58.0604C29.5816 58.0399 29.6176 58.0296 29.6552 58.0296C29.7134 58.0296 29.7597 58.0519 29.7939 58.0964C29.8316 58.1374 29.8504 58.182 29.8504 58.2299C29.8504 58.2538 29.8452 58.2778 29.835 58.3018C29.8213 58.3292 29.7939 58.3856 29.7528 58.4712C29.7117 58.5568 29.657 58.6561 29.5885 58.7691C29.5234 58.8786 29.4464 58.9967 29.3574 59.1234C29.2684 59.2466 29.1691 59.3596 29.0596 59.4623C28.9535 59.565 28.8371 59.6506 28.7104 59.7191C28.5871 59.7875 28.4571 59.8218 28.3201 59.8218C28.1661 59.8218 28.0411 59.7927 27.9453 59.7345C27.8494 59.6728 27.7741 59.5941 27.7193 59.4983C27.6645 59.399 27.6269 59.2911 27.6063 59.1747C27.5892 59.0549 27.5807 58.9351 27.5807 58.8153C27.5807 58.7639 27.5824 58.7057 27.5858 58.6407C27.5926 58.5756 27.5995 58.5072 27.6063 58.4353C27.6166 58.3634 27.6235 58.2915 27.6269 58.2196C27.6337 58.1477 27.6372 58.0793 27.6372 58.0142C27.6372 57.9047 27.62 57.8311 27.5858 57.7934C27.5516 57.7523 27.5208 57.7318 27.4934 57.7318C27.4386 57.7318 27.3753 57.7643 27.3034 57.8293C27.2349 57.891 27.1613 57.9731 27.0826 58.0758C27.0072 58.1785 26.9285 58.2949 26.8463 58.425C26.7676 58.5517 26.6923 58.6783 26.6204 58.805C26.5519 58.9317 26.4869 59.0532 26.4253 59.1696C26.3671 59.2826 26.3209 59.3767 26.2866 59.452C26.2181 59.5958 26.1497 59.6917 26.0812 59.7396C26.0127 59.791 25.9426 59.8166 25.8707 59.8166C25.7714 59.8166 25.6909 59.7875 25.6293 59.7293C25.5711 59.6677 25.542 59.5821 25.542 59.4726C25.542 59.4486 25.5455 59.4024 25.5523 59.3339C25.5591 59.262 25.5677 59.1782 25.578 59.0823C25.5882 58.983 25.5985 58.8769 25.6088 58.7639C25.6191 58.651 25.6293 58.5397 25.6396 58.4301C25.6499 58.3172 25.6584 58.2128 25.6653 58.1169C25.6721 58.0211 25.6755 57.9406 25.6755 57.8756C25.6755 57.79 25.6721 57.7078 25.6653 57.6291C25.6584 57.5503 25.6447 57.5024 25.6242 57.4853C25.5934 57.4956 25.5386 57.5606 25.4599 57.6804C25.3811 57.7968 25.2801 58.0039 25.1569 58.3018C25.1398 58.3394 25.1141 58.3685 25.0799 58.3891C25.0456 58.4096 25.0097 58.4199 24.972 58.4199C24.9138 58.4199 24.8676 58.4011 24.8334 58.3634C24.7991 58.3223 24.782 58.2761 24.782 58.2247C24.782 58.2008 24.7872 58.1751 24.7974 58.1477C24.9515 57.7814 25.0953 57.5127 25.2288 57.3415C25.3657 57.1669 25.5009 57.0796 25.6345 57.0796C25.7132 57.0796 25.78 57.1002 25.8347 57.1412C25.8895 57.1789 25.9323 57.2302 25.9631 57.2953C25.9973 57.3603 26.0213 57.4322 26.035 57.511C26.0521 57.5897 26.0607 57.6702 26.0607 57.7523C26.0607 57.8139 26.0555 57.9098 26.0453 58.0399C26.0384 58.17 26.0282 58.3103 26.0145 58.461C26.0008 58.6082 25.9871 58.7554 25.9734 58.9026C25.9631 59.0498 25.9528 59.173 25.9426 59.2723ZM30.102 59.1696C30.1739 59.2689 30.2663 59.3493 30.3793 59.411C30.4923 59.4692 30.6309 59.4983 30.7952 59.4983C30.963 59.4983 31.1153 59.4589 31.2523 59.3801C31.3892 59.298 31.5142 59.1919 31.6271 59.0618C31.7401 58.9317 31.8411 58.7862 31.9301 58.6253C32.0191 58.4644 32.0996 58.3035 32.1715 58.1426C32.1886 58.1049 32.2125 58.0775 32.2433 58.0604C32.2742 58.0399 32.3084 58.0296 32.346 58.0296C32.4042 58.0296 32.4505 58.0502 32.4847 58.0912C32.5223 58.1323 32.5412 58.1768 32.5412 58.2247C32.5412 58.2419 32.5395 58.2573 32.536 58.271C32.5326 58.2812 32.5275 58.2932 32.5206 58.3069C32.2844 58.8273 32.026 59.2192 31.7452 59.4828C31.4679 59.7464 31.153 59.8817 30.8004 59.8885C30.5744 59.8885 30.3793 59.844 30.215 59.755C30.0507 59.6694 29.9154 59.5582 29.8093 59.4212C29.7032 59.2809 29.6244 59.1234 29.5731 58.9488C29.5217 58.7742 29.4961 58.5996 29.4961 58.425C29.4961 58.2504 29.5166 58.0895 29.5577 57.9423C29.6022 57.7951 29.6638 57.6667 29.7425 57.5572C29.8247 57.4476 29.9206 57.362 30.0301 57.3004C30.1431 57.2388 30.2663 57.208 30.3998 57.208C30.4786 57.208 30.5556 57.2251 30.6309 57.2593C30.7097 57.2902 30.7798 57.3364 30.8415 57.398C30.9031 57.4562 30.9527 57.5281 30.9904 57.6137C31.028 57.6993 31.0469 57.7968 31.0469 57.9064C31.0469 58.0467 31.0229 58.1785 30.975 58.3018C30.927 58.425 30.8603 58.5397 30.7747 58.6458C30.6925 58.7519 30.5933 58.8495 30.4769 58.9385C30.3605 59.0275 30.2355 59.1046 30.102 59.1696ZM29.9479 58.8358C30.0541 58.7913 30.1499 58.7348 30.2355 58.6664C30.3245 58.5979 30.3998 58.5226 30.4615 58.4404C30.5231 58.3583 30.571 58.2727 30.6052 58.1837C30.6395 58.0912 30.6566 57.9988 30.6566 57.9064C30.6566 57.8037 30.6309 57.7266 30.5796 57.6753C30.5282 57.6205 30.4683 57.5931 30.3998 57.5931C30.3074 57.5931 30.2287 57.6188 30.1636 57.6702C30.0986 57.7215 30.0455 57.7883 30.0044 57.8704C29.9634 57.9526 29.9325 58.045 29.912 58.1477C29.8949 58.247 29.8863 58.3463 29.8863 58.4456C29.8863 58.5072 29.8915 58.5722 29.9017 58.6407C29.9154 58.7092 29.9308 58.7742 29.9479 58.8358ZM37.8457 58.312C37.8252 58.3497 37.7893 58.4182 37.7379 58.5174C37.69 58.6167 37.6232 58.7297 37.5376 58.8564C37.4555 58.9796 37.3562 59.108 37.2398 59.2415C37.1234 59.375 36.9899 59.4983 36.8393 59.6112C36.6886 59.7208 36.5192 59.8115 36.3309 59.8834C36.146 59.9553 35.944 59.9912 35.7249 59.9912C35.5298 59.9912 35.3569 59.9553 35.2063 59.8834C35.0557 59.8149 34.9273 59.7173 34.8212 59.5907C34.715 59.4606 34.6346 59.3083 34.5798 59.1337C34.525 58.9591 34.4977 58.7656 34.4977 58.5534C34.4977 58.348 34.5268 58.1563 34.5849 57.9783C34.6431 57.7968 34.7219 57.6393 34.8212 57.5058C34.9239 57.3723 35.042 57.2679 35.1755 57.1926C35.309 57.1138 35.4511 57.0745 35.6017 57.0745C35.7147 57.0745 35.8174 57.095 35.9098 57.1361C36.0022 57.1738 36.0793 57.2251 36.1409 57.2902C36.2059 57.3552 36.2556 57.4271 36.2898 57.5058C36.3275 57.5846 36.3463 57.6633 36.3463 57.742C36.3463 57.8174 36.336 57.8875 36.3155 57.9526C36.2984 58.0176 36.2744 58.0758 36.2436 58.1272C36.2162 58.1751 36.1837 58.2145 36.146 58.2453C36.1084 58.2727 36.0707 58.2864 36.033 58.2864C35.9749 58.2864 35.9269 58.2675 35.8893 58.2299C35.855 58.1922 35.8379 58.146 35.8379 58.0912C35.8379 58.0638 35.8431 58.0399 35.8533 58.0193C35.867 57.9988 35.8807 57.9783 35.8944 57.9577C35.9115 57.9338 35.9252 57.9064 35.9355 57.8756C35.9492 57.8413 35.956 57.7985 35.956 57.7472C35.956 57.6753 35.9218 57.6102 35.8533 57.552C35.7883 57.4938 35.7044 57.4647 35.6017 57.4647C35.5058 57.4647 35.4134 57.4938 35.3244 57.552C35.2388 57.6102 35.1635 57.689 35.0985 57.7883C35.0334 57.8841 34.9804 57.9988 34.9393 58.1323C34.9016 58.2624 34.8828 58.4011 34.8828 58.5483C34.8828 58.6886 34.8999 58.8221 34.9341 58.9488C34.9684 59.0755 35.0197 59.1884 35.0882 59.2877C35.1567 59.3836 35.2422 59.4606 35.3449 59.5188C35.4511 59.577 35.576 59.6061 35.7198 59.6061C35.9047 59.6061 36.0758 59.5736 36.2333 59.5085C36.3908 59.4401 36.5346 59.3545 36.6647 59.2518C36.7948 59.1491 36.9094 59.0378 37.0087 58.918C37.108 58.7947 37.1919 58.6801 37.2603 58.5739C37.3322 58.4644 37.387 58.3702 37.4247 58.2915C37.4657 58.2093 37.4897 58.158 37.4966 58.1374C37.5102 58.1032 37.5325 58.0775 37.5633 58.0604C37.5975 58.0399 37.6335 58.0296 37.6711 58.0296C37.7293 58.0296 37.7756 58.0502 37.8098 58.0912C37.8475 58.1323 37.8663 58.1785 37.8663 58.2299C37.8663 58.2504 37.8594 58.2778 37.8457 58.312ZM41.466 58.3018C41.4523 58.3292 41.4232 58.3874 41.3787 58.4764C41.3376 58.562 41.2828 58.6612 41.2144 58.7742C41.1493 58.8872 41.0723 59.0053 40.9833 59.1285C40.8943 59.2518 40.795 59.3647 40.6855 59.4674C40.5759 59.5701 40.4578 59.6557 40.3311 59.7242C40.2045 59.7892 40.071 59.8218 39.9306 59.8218C39.732 59.8218 39.5643 59.7584 39.4274 59.6318C39.2938 59.5051 39.1963 59.3459 39.1347 59.1542C39.0183 59.3493 38.8796 59.5051 38.7187 59.6215C38.5578 59.7345 38.3969 59.791 38.236 59.791C38.1093 59.791 37.9947 59.7687 37.892 59.7242C37.7893 59.6763 37.702 59.6112 37.6301 59.5291C37.5582 59.4435 37.5017 59.3442 37.4606 59.2312C37.423 59.1183 37.4041 58.995 37.4041 58.8615C37.4041 58.5945 37.4486 58.36 37.5376 58.158C37.6301 57.9526 37.7465 57.7814 37.8868 57.6445C38.0272 57.5075 38.1812 57.4048 38.349 57.3364C38.5202 57.2679 38.6845 57.2337 38.842 57.2337C38.9481 57.2337 39.0456 57.2491 39.1347 57.2799C39.2237 57.3073 39.299 57.3381 39.3606 57.3723C39.4256 57.4066 39.4753 57.4391 39.5095 57.4699C39.5438 57.4973 39.5626 57.5127 39.566 57.5161C39.6037 57.5606 39.6225 57.6068 39.6225 57.6547C39.6225 57.7061 39.6037 57.7523 39.566 57.7934C39.5283 57.8311 39.4838 57.8499 39.4325 57.8499C39.3777 57.8499 39.3315 57.8311 39.2938 57.7934C39.287 57.7865 39.2716 57.7746 39.2476 57.7575C39.2237 57.7369 39.1911 57.7164 39.1501 57.6958C39.109 57.6753 39.0593 57.6582 39.0011 57.6445C38.9464 57.6274 38.883 57.6188 38.8111 57.6188C38.705 57.6188 38.592 57.6428 38.4722 57.6907C38.3524 57.7386 38.2429 57.8139 38.1436 57.9166C38.0443 58.0159 37.9604 58.1426 37.892 58.2966C37.8269 58.4473 37.7944 58.627 37.7944 58.8358C37.7944 58.9009 37.8012 58.9676 37.8149 59.0361C37.8286 59.1011 37.8526 59.161 37.8868 59.2158C37.9211 59.2706 37.9673 59.3151 38.0255 59.3493C38.0837 59.3836 38.1556 59.4007 38.2411 59.4007C38.3028 59.4007 38.3729 59.3801 38.4517 59.3391C38.5338 59.298 38.6109 59.2346 38.6828 59.1491C38.7581 59.0635 38.8248 58.9556 38.883 58.8256C38.9447 58.6955 38.9874 58.5414 39.0114 58.3634C39.0183 58.3155 39.0405 58.2761 39.0782 58.2453C39.1158 58.2111 39.1603 58.1939 39.2117 58.1939C39.2596 58.1939 39.3007 58.2128 39.3349 58.2504C39.3726 58.2881 39.3931 58.3309 39.3965 58.3788C39.4 58.4438 39.4068 58.5363 39.4171 58.6561C39.4274 58.7725 39.4496 58.8889 39.4838 59.0053C39.5215 59.1217 39.5763 59.2227 39.6482 59.3083C39.7201 59.3938 39.8193 59.4366 39.946 59.4366C40.0282 59.4366 40.1086 59.4144 40.1874 59.3699C40.2695 59.3254 40.3483 59.2672 40.4236 59.1953C40.5023 59.12 40.5759 59.0361 40.6444 58.9437C40.7163 58.8478 40.7813 58.7519 40.8395 58.6561C40.8977 58.5602 40.9491 58.4678 40.9936 58.3788C41.0381 58.2898 41.0757 58.2128 41.1065 58.1477C41.1237 58.1101 41.1476 58.081 41.1784 58.0604C41.2127 58.0399 41.2486 58.0296 41.2863 58.0296C41.3445 58.0296 41.3907 58.0519 41.4249 58.0964C41.4626 58.1374 41.4814 58.182 41.4814 58.2299C41.4814 58.2538 41.4763 58.2778 41.466 58.3018ZM42.4057 59.1028C42.4639 59.2329 42.5598 59.3374 42.6933 59.4161C42.8268 59.4914 42.9774 59.5291 43.1452 59.5291C43.1965 59.5291 43.2804 59.5222 43.3968 59.5085C43.5132 59.4914 43.6467 59.4401 43.7973 59.3545C43.9514 59.2655 44.114 59.1268 44.2852 58.9385C44.4563 58.7502 44.6224 58.4849 44.7833 58.1426C44.8004 58.1049 44.8244 58.0775 44.8552 58.0604C44.886 58.0399 44.9202 58.0296 44.9579 58.0296C45.0161 58.0296 45.0623 58.0502 45.0965 58.0912C45.1342 58.1323 45.153 58.1768 45.153 58.2247C45.153 58.2453 45.1462 58.2727 45.1325 58.3069C45.0126 58.5568 44.8791 58.781 44.7319 58.9796C44.5847 59.1747 44.4255 59.3425 44.2544 59.4828C44.0832 59.6198 43.9035 59.7242 43.7152 59.7961C43.5303 59.8714 43.3403 59.9091 43.1452 59.9091C42.9911 59.9091 42.8456 59.8851 42.7087 59.8372C42.5752 59.7892 42.4588 59.7259 42.3595 59.6472C42.2636 59.565 42.1866 59.4743 42.1284 59.375C42.0736 59.2723 42.0463 59.1679 42.0463 59.0618C42.0463 59.0481 42.048 59.0292 42.0514 59.0053C42.0548 58.9813 42.0634 58.9556 42.0771 58.9283C42.0942 58.8974 42.1164 58.8701 42.1438 58.8461C42.1746 58.8187 42.2157 58.7965 42.2671 58.7793C42.4074 58.7383 42.5358 58.6886 42.6522 58.6304C42.772 58.5688 42.8747 58.5003 42.9603 58.425C43.0459 58.3497 43.1127 58.2675 43.1606 58.1785C43.2085 58.0861 43.2325 57.9868 43.2325 57.8807C43.2325 57.7883 43.2017 57.7129 43.14 57.6547C43.0784 57.5966 43.0031 57.5675 42.9141 57.5675C42.8217 57.5675 42.7309 57.6 42.6419 57.665C42.5529 57.7266 42.4656 57.8105 42.38 57.9166C42.2979 58.0193 42.2191 58.1392 42.1438 58.2761C42.0685 58.4096 41.9983 58.55 41.9333 58.6972C41.8717 58.8444 41.8169 58.9916 41.769 59.1388C41.721 59.2826 41.6817 59.4161 41.6509 59.5393C41.6406 59.577 41.6286 59.6181 41.6149 59.6626C41.6046 59.7071 41.5875 59.7482 41.5636 59.7858C41.5396 59.8269 41.5105 59.8594 41.4763 59.8834C41.442 59.9108 41.3975 59.9245 41.3428 59.9245C41.2914 59.9245 41.2418 59.9022 41.1938 59.8577C41.1459 59.8166 41.1219 59.7447 41.1219 59.642C41.1219 59.6215 41.1219 59.5428 41.1219 59.4058C41.1254 59.2689 41.1288 59.0909 41.1322 58.8718C41.1356 58.6492 41.1391 58.3959 41.1425 58.1118C41.1493 57.8242 41.1545 57.5212 41.1579 57.2029C41.1613 56.8811 41.1664 56.5507 41.1733 56.2118C41.1801 55.8729 41.1853 55.5425 41.1887 55.2207C41.1921 54.8989 41.1955 54.5942 41.199 54.3067C41.2058 54.0157 41.211 53.7589 41.2144 53.5364C41.2178 53.3104 41.2195 53.1273 41.2195 52.9869C41.2229 52.8432 41.2246 52.7576 41.2246 52.7302C41.2246 52.6754 41.2452 52.6309 41.2863 52.5967C41.3273 52.559 41.3719 52.5402 41.4198 52.5402C41.4746 52.5402 41.5208 52.559 41.5584 52.5967C41.5961 52.6309 41.6149 52.6771 41.6149 52.7353C41.6149 52.7422 41.6132 52.8106 41.6098 52.9407C41.6098 53.0674 41.6081 53.2386 41.6046 53.4542C41.6012 53.6699 41.5961 53.9215 41.5892 54.2091C41.5858 54.4967 41.5807 54.8031 41.5738 55.1283C41.5704 55.4501 41.5653 55.7821 41.5584 56.1245C41.555 56.4668 41.5499 56.8006 41.543 57.1258C41.5396 57.4511 41.5362 57.7609 41.5328 58.0553C41.5293 58.3497 41.5259 58.6099 41.5225 58.8358C41.5773 58.6612 41.6474 58.4781 41.733 58.2864C41.8186 58.0912 41.9196 57.9115 42.036 57.7472C42.1524 57.5829 42.2825 57.4476 42.4263 57.3415C42.5735 57.2354 42.7361 57.1823 42.9141 57.1823C43.0134 57.1823 43.1058 57.2011 43.1914 57.2388C43.277 57.273 43.3506 57.3227 43.4122 57.3877C43.4772 57.4493 43.5269 57.5229 43.5611 57.6085C43.5988 57.6941 43.6176 57.7865 43.6176 57.8858C43.6176 58.0399 43.5834 58.182 43.5149 58.312C43.4464 58.4387 43.3557 58.5534 43.2427 58.6561C43.1298 58.7554 42.9997 58.8427 42.8525 58.918C42.7087 58.9933 42.5598 59.0549 42.4057 59.1028ZM45.4046 59.1696C45.4765 59.2689 45.5689 59.3493 45.6819 59.411C45.7949 59.4692 45.9335 59.4983 46.0979 59.4983C46.2656 59.4983 46.418 59.4589 46.5549 59.3801C46.6918 59.298 46.8168 59.1919 46.9298 59.0618C47.0427 58.9317 47.1437 58.7862 47.2327 58.6253C47.3217 58.4644 47.4022 58.3035 47.4741 58.1426C47.4912 58.1049 47.5152 58.0775 47.546 58.0604C47.5768 58.0399 47.611 58.0296 47.6487 58.0296C47.7069 58.0296 47.7531 58.0502 47.7873 58.0912C47.825 58.1323 47.8438 58.1768 47.8438 58.2247C47.8438 58.2419 47.8421 58.2573 47.8387 58.271C47.8352 58.2812 47.8301 58.2932 47.8233 58.3069C47.587 58.8273 47.3286 59.2192 47.0479 59.4828C46.7706 59.7464 46.4556 59.8817 46.103 59.8885C45.8771 59.8885 45.6819 59.844 45.5176 59.755C45.3533 59.6694 45.218 59.5582 45.1119 59.4212C45.0058 59.2809 44.9271 59.1234 44.8757 58.9488C44.8244 58.7742 44.7987 58.5996 44.7987 58.425C44.7987 58.2504 44.8192 58.0895 44.8603 57.9423C44.9048 57.7951 44.9664 57.6667 45.0452 57.5572C45.1273 57.4476 45.2232 57.362 45.3327 57.3004C45.4457 57.2388 45.5689 57.208 45.7025 57.208C45.7812 57.208 45.8582 57.2251 45.9335 57.2593C46.0123 57.2902 46.0825 57.3364 46.1441 57.398C46.2057 57.4562 46.2553 57.5281 46.293 57.6137C46.3307 57.6993 46.3495 57.7968 46.3495 57.9064C46.3495 58.0467 46.3255 58.1785 46.2776 58.3018C46.2297 58.425 46.1629 58.5397 46.0773 58.6458C45.9952 58.7519 45.8959 58.8495 45.7795 58.9385C45.6631 59.0275 45.5381 59.1046 45.4046 59.1696ZM45.2506 58.8358C45.3567 58.7913 45.4526 58.7348 45.5381 58.6664C45.6271 58.5979 45.7025 58.5226 45.7641 58.4404C45.8257 58.3583 45.8736 58.2727 45.9079 58.1837C45.9421 58.0912 45.9592 57.9988 45.9592 57.9064C45.9592 57.8037 45.9335 57.7266 45.8822 57.6753C45.8308 57.6205 45.7709 57.5931 45.7025 57.5931C45.61 57.5931 45.5313 57.6188 45.4662 57.6702C45.4012 57.7215 45.3481 57.7883 45.3071 57.8704C45.266 57.9526 45.2352 58.045 45.2146 58.1477C45.1975 58.247 45.1889 58.3463 45.1889 58.4456C45.1889 58.5072 45.1941 58.5722 45.2044 58.6407C45.218 58.7092 45.2335 58.7742 45.2506 58.8358ZM48.0492 57.8345C48.0287 57.8893 48.003 57.9509 47.9722 58.0193C47.9448 58.0878 47.9123 58.1597 47.8746 58.235C47.8438 58.2932 47.8113 58.3394 47.777 58.3737C47.7462 58.4045 47.7052 58.4199 47.6538 58.4199C47.5956 58.4199 47.5494 58.4028 47.5152 58.3685C47.4809 58.3309 47.4638 58.2881 47.4638 58.2402C47.4638 58.223 47.4655 58.2093 47.4689 58.1991C47.4724 58.1854 47.4809 58.1648 47.4946 58.1374C47.5836 57.9663 47.6487 57.8174 47.6897 57.6907C47.7343 57.5606 47.7702 57.4254 47.7976 57.285C47.7736 57.2063 47.7565 57.1395 47.7462 57.0848C47.736 57.03 47.7308 56.9735 47.7308 56.9153C47.7308 56.8023 47.7548 56.7116 47.8027 56.6431C47.8506 56.5712 47.9174 56.5353 48.003 56.5353C48.0817 56.5353 48.1433 56.5695 48.1879 56.638C48.2358 56.7065 48.2597 56.7903 48.2597 56.8896C48.2597 56.9444 48.2546 56.9992 48.2443 57.0539C48.2341 57.1087 48.2204 57.1772 48.2033 57.2593C48.282 57.4545 48.3607 57.6274 48.4395 57.778C48.5182 57.9286 48.5884 58.0673 48.65 58.1939C48.7116 58.3172 48.7613 58.4336 48.7989 58.5431C48.84 58.6527 48.8606 58.7622 48.8606 58.8718C48.8606 59.0156 48.8315 59.1525 48.7733 59.2826C48.7151 59.4127 48.6192 59.5222 48.4857 59.6112C48.5028 59.6146 48.5199 59.6164 48.537 59.6164C48.5542 59.6164 48.5713 59.6164 48.5884 59.6164C48.7835 59.6164 48.9633 59.5719 49.1276 59.4828C49.2919 59.3938 49.4391 59.2792 49.5692 59.1388C49.7027 58.995 49.8208 58.8375 49.9235 58.6664C50.0262 58.4918 50.1152 58.3189 50.1905 58.1477C50.2248 58.069 50.2727 58.0296 50.3343 58.0296C50.3925 58.0296 50.437 58.0502 50.4678 58.0912C50.5021 58.1323 50.5192 58.1768 50.5192 58.2247C50.5192 58.2521 50.5141 58.2778 50.5038 58.3018C50.4661 58.3942 50.4165 58.5003 50.3549 58.6201C50.2967 58.7365 50.2248 58.8581 50.1392 58.9847C50.057 59.108 49.9612 59.2295 49.8516 59.3493C49.7421 59.4692 49.6188 59.577 49.4819 59.6728C49.3484 59.7653 49.2012 59.8389 49.0403 59.8937C48.8794 59.9519 48.7031 59.981 48.5114 59.981C48.282 59.981 48.068 59.9399 47.8695 59.8577C47.6743 59.779 47.5152 59.6472 47.3919 59.4623C47.3714 59.4315 47.3611 59.399 47.3611 59.3647C47.3611 59.3134 47.3799 59.2689 47.4176 59.2312C47.4587 59.1901 47.5049 59.1696 47.5562 59.1696C47.611 59.1696 47.6572 59.1884 47.6949 59.2261C47.6983 59.2329 47.7103 59.2449 47.7308 59.262C47.7514 59.2757 47.7753 59.2928 47.8027 59.3134C47.8335 59.3305 47.8678 59.3459 47.9054 59.3596C47.9465 59.3733 47.9876 59.3801 48.0287 59.3801C48.1108 59.3801 48.1793 59.363 48.2341 59.3288C48.2923 59.2946 48.3385 59.2535 48.3727 59.2056C48.4069 59.1542 48.4309 59.1011 48.4446 59.0464C48.4617 58.9882 48.4703 58.9385 48.4703 58.8974C48.4703 58.8119 48.4566 58.7263 48.4292 58.6407C48.4018 58.5551 48.3659 58.4695 48.3214 58.3839C48.2803 58.2983 48.2341 58.2111 48.1827 58.122C48.1348 58.0296 48.0903 57.9338 48.0492 57.8345ZM56.4297 58.3018C56.416 58.3292 56.3869 58.3874 56.3424 58.4764C56.3013 58.562 56.2465 58.6612 56.1781 58.7742C56.113 58.8872 56.036 59.0053 55.947 59.1285C55.858 59.2518 55.7587 59.3647 55.6492 59.4674C55.5396 59.5701 55.4215 59.6557 55.2948 59.7242C55.1682 59.7892 55.0347 59.8218 54.8943 59.8218C54.6957 59.8218 54.528 59.7584 54.3911 59.6318C54.2575 59.5051 54.16 59.3459 54.0984 59.1542C53.982 59.3493 53.8433 59.5051 53.6824 59.6215C53.5215 59.7345 53.3606 59.791 53.1997 59.791C53.073 59.791 52.9584 59.7687 52.8557 59.7242C52.753 59.6763 52.6657 59.6112 52.5938 59.5291C52.5219 59.4435 52.4654 59.3442 52.4243 59.2312C52.3867 59.1183 52.3678 58.995 52.3678 58.8615C52.3678 58.5945 52.4123 58.36 52.5013 58.158C52.5938 57.9526 52.7102 57.7814 52.8505 57.6445C52.9909 57.5075 53.1449 57.4048 53.3127 57.3364C53.4839 57.2679 53.6482 57.2337 53.8057 57.2337C53.9118 57.2337 54.0094 57.2491 54.0984 57.2799C54.1874 57.3073 54.2627 57.3381 54.3243 57.3723C54.3893 57.4066 54.439 57.4391 54.4732 57.4699C54.5075 57.4973 54.5263 57.5127 54.5297 57.5161C54.5674 57.5606 54.5862 57.6068 54.5862 57.6547C54.5862 57.7061 54.5674 57.7523 54.5297 57.7934C54.4921 57.8311 54.4475 57.8499 54.3962 57.8499C54.3414 57.8499 54.2952 57.8311 54.2575 57.7934C54.2507 57.7865 54.2353 57.7746 54.2113 57.7575C54.1874 57.7369 54.1548 57.7164 54.1138 57.6958C54.0727 57.6753 54.023 57.6582 53.9648 57.6445C53.9101 57.6274 53.8467 57.6188 53.7748 57.6188C53.6687 57.6188 53.5557 57.6428 53.4359 57.6907C53.3161 57.7386 53.2066 57.8139 53.1073 57.9166C53.008 58.0159 52.9241 58.1426 52.8557 58.2966C52.7906 58.4473 52.7581 58.627 52.7581 58.8358C52.7581 58.9009 52.7649 58.9676 52.7786 59.0361C52.7923 59.1011 52.8163 59.161 52.8505 59.2158C52.8848 59.2706 52.931 59.3151 52.9892 59.3493C53.0474 59.3836 53.1193 59.4007 53.2048 59.4007C53.2665 59.4007 53.3367 59.3801 53.4154 59.3391C53.4976 59.298 53.5746 59.2346 53.6465 59.1491C53.7218 59.0635 53.7885 58.9556 53.8467 58.8256C53.9084 58.6955 53.9512 58.5414 53.9751 58.3634C53.982 58.3155 54.0042 58.2761 54.0419 58.2453C54.0795 58.2111 54.124 58.1939 54.1754 58.1939C54.2233 58.1939 54.2644 58.2128 54.2986 58.2504C54.3363 58.2881 54.3568 58.3309 54.3602 58.3788C54.3637 58.4438 54.3705 58.5363 54.3808 58.6561C54.3911 58.7725 54.4133 58.8889 54.4475 59.0053C54.4852 59.1217 54.54 59.2227 54.6119 59.3083C54.6838 59.3938 54.783 59.4366 54.9097 59.4366C54.9919 59.4366 55.0723 59.4144 55.1511 59.3699C55.2332 59.3254 55.312 59.2672 55.3873 59.1953C55.466 59.12 55.5396 59.0361 55.6081 58.9437C55.68 58.8478 55.745 58.7519 55.8032 58.6561C55.8614 58.5602 55.9128 58.4678 55.9573 58.3788C56.0018 58.2898 56.0394 58.2128 56.0702 58.1477C56.0874 58.1101 56.1113 58.081 56.1421 58.0604C56.1764 58.0399 56.2123 58.0296 56.25 58.0296C56.3082 58.0296 56.3544 58.0519 56.3886 58.0964C56.4263 58.1374 56.4451 58.182 56.4451 58.2299C56.4451 58.2538 56.44 58.2778 56.4297 58.3018ZM57.2154 59.2723C57.2701 59.1593 57.3335 59.0361 57.4054 58.9026C57.4773 58.7656 57.5543 58.6287 57.6364 58.4918C57.7186 58.3514 57.8042 58.2128 57.8932 58.0758C57.9856 57.9389 58.0815 57.8088 58.1808 57.6856C58.28 57.5657 58.3793 57.4802 58.4786 57.4288C58.5813 57.374 58.6772 57.3466 58.7662 57.3466C58.9442 57.3466 59.076 57.4117 59.1616 57.5418C59.2472 57.6719 59.29 57.8328 59.29 58.0245C59.29 58.069 59.2865 58.1238 59.2797 58.1888C59.2763 58.2504 59.2711 58.3172 59.2643 58.3891C59.2609 58.461 59.2557 58.5346 59.2489 58.6099C59.2454 58.6818 59.2437 58.7502 59.2437 58.8153C59.2437 58.8974 59.2472 58.9762 59.254 59.0515C59.2643 59.1268 59.2814 59.1936 59.3054 59.2518C59.3293 59.3065 59.3636 59.351 59.4081 59.3853C59.4526 59.4161 59.5108 59.4315 59.5827 59.4315C59.7127 59.4315 59.8394 59.3819 59.9627 59.2826C60.0859 59.1799 60.1989 59.0601 60.3016 58.9231C60.4077 58.7828 60.4984 58.6407 60.5737 58.4969C60.6525 58.3531 60.7107 58.2367 60.7483 58.1477C60.7654 58.1101 60.7894 58.081 60.8202 58.0604C60.8544 58.0399 60.8904 58.0296 60.9281 58.0296C60.9863 58.0296 61.0325 58.0519 61.0667 58.0964C61.1044 58.1374 61.1232 58.182 61.1232 58.2299C61.1232 58.2538 61.1181 58.2778 61.1078 58.3018C61.0941 58.3292 61.0667 58.3856 61.0256 58.4712C60.9845 58.5568 60.9298 58.6561 60.8613 58.7691C60.7963 58.8786 60.7192 58.9967 60.6302 59.1234C60.5412 59.2466 60.4419 59.3596 60.3324 59.4623C60.2263 59.565 60.1099 59.6506 59.9832 59.7191C59.8599 59.7875 59.7299 59.8218 59.5929 59.8218C59.4389 59.8218 59.3139 59.7927 59.2181 59.7345C59.1222 59.6728 59.0469 59.5941 58.9921 59.4983C58.9373 59.399 58.8997 59.2911 58.8791 59.1747C58.862 59.0549 58.8535 58.9351 58.8535 58.8153C58.8535 58.7639 58.8552 58.7057 58.8586 58.6407C58.8655 58.5756 58.8723 58.5072 58.8791 58.4353C58.8894 58.3634 58.8963 58.2915 58.8997 58.2196C58.9065 58.1477 58.91 58.0793 58.91 58.0142C58.91 57.9047 58.8928 57.8311 58.8586 57.7934C58.8244 57.7523 58.7936 57.7318 58.7662 57.7318C58.7114 57.7318 58.6481 57.7643 58.5762 57.8293C58.5077 57.891 58.4341 57.9731 58.3554 58.0758C58.28 58.1785 58.2013 58.2949 58.1191 58.425C58.0404 58.5517 57.9651 58.6783 57.8932 58.805C57.8247 58.9317 57.7597 59.0532 57.6981 59.1696C57.6399 59.2826 57.5937 59.3767 57.5594 59.452C57.491 59.5958 57.4225 59.6917 57.354 59.7396C57.2855 59.791 57.2154 59.8166 57.1435 59.8166C57.0442 59.8166 56.9637 59.7875 56.9021 59.7293C56.8439 59.6677 56.8148 59.5821 56.8148 59.4726C56.8148 59.4486 56.8183 59.4024 56.8251 59.3339C56.8319 59.262 56.8405 59.1782 56.8508 59.0823C56.861 58.983 56.8713 58.8769 56.8816 58.7639C56.8919 58.651 56.9021 58.5397 56.9124 58.4301C56.9227 58.3172 56.9312 58.2128 56.9381 58.1169C56.9449 58.0211 56.9483 57.9406 56.9483 57.8756C56.9483 57.79 56.9449 57.7078 56.9381 57.6291C56.9312 57.5503 56.9175 57.5024 56.897 57.4853C56.8662 57.4956 56.8114 57.5606 56.7327 57.6804C56.6539 57.7968 56.5529 58.0039 56.4297 58.3018C56.4126 58.3394 56.3869 58.3685 56.3527 58.3891C56.3184 58.4096 56.2825 58.4199 56.2448 58.4199C56.1866 58.4199 56.1404 58.4011 56.1062 58.3634C56.072 58.3223 56.0548 58.2761 56.0548 58.2247C56.0548 58.2008 56.06 58.1751 56.0702 58.1477C56.2243 57.7814 56.3681 57.5127 56.5016 57.3415C56.6385 57.1669 56.7738 57.0796 56.9073 57.0796C56.986 57.0796 57.0528 57.1002 57.1075 57.1412C57.1623 57.1789 57.2051 57.2302 57.2359 57.2953C57.2701 57.3603 57.2941 57.4322 57.3078 57.511C57.3249 57.5897 57.3335 57.6702 57.3335 57.7523C57.3335 57.8139 57.3283 57.9098 57.3181 58.0399C57.3112 58.17 57.301 58.3103 57.2873 58.461C57.2736 58.6082 57.2599 58.7554 57.2462 58.9026C57.2359 59.0498 57.2256 59.173 57.2154 59.2723ZM62.751 58.2402C62.9188 59.031 63.1618 59.4264 63.4802 59.4264C63.6034 59.4264 63.7216 59.3819 63.8345 59.2928C63.9475 59.2004 64.0519 59.0892 64.1478 58.9591C64.247 58.8256 64.3343 58.6852 64.4097 58.538C64.485 58.3908 64.5466 58.2624 64.5945 58.1529C64.6288 58.0707 64.6887 58.0296 64.7742 58.0296C64.829 58.0296 64.8752 58.0502 64.9129 58.0912C64.9506 58.1323 64.9694 58.1768 64.9694 58.2247C64.9694 58.2521 64.9642 58.2761 64.954 58.2966C64.93 58.3548 64.8941 58.4336 64.8461 58.5329C64.8016 58.6287 64.7452 58.7331 64.6767 58.8461C64.6116 58.9556 64.538 59.0686 64.4559 59.185C64.3737 59.3014 64.283 59.4058 64.1837 59.4983C64.0844 59.5907 63.9783 59.6677 63.8653 59.7293C63.7558 59.7875 63.6394 59.8166 63.5161 59.8166C63.2868 59.8166 63.0899 59.7379 62.9256 59.5804C62.7613 59.4195 62.6192 59.1559 62.4994 58.7896C62.3351 59.1388 62.169 59.3921 62.0013 59.5496C61.8335 59.7071 61.6521 59.7858 61.457 59.7858C61.3543 59.7858 61.255 59.7687 61.1591 59.7345C61.0633 59.7037 60.9794 59.6506 60.9075 59.5753C60.8356 59.5 60.7774 59.4041 60.7329 59.2877C60.6884 59.1679 60.6662 59.0224 60.6662 58.8512C60.6662 58.615 60.7072 58.3976 60.7894 58.1991C60.8716 58.0005 60.9777 57.8311 61.1078 57.6907C61.2379 57.5469 61.3817 57.4356 61.5391 57.3569C61.7 57.2782 61.8592 57.2388 62.0167 57.2388C62.068 57.2388 62.1126 57.2576 62.1502 57.2953C62.1879 57.3295 62.2067 57.374 62.2067 57.4288C62.2067 57.4767 62.1913 57.5195 62.1605 57.5572C62.1297 57.5948 62.0886 57.6171 62.0372 57.6239C61.9345 57.6376 61.825 57.6702 61.7086 57.7215C61.5922 57.7729 61.4844 57.8482 61.3851 57.9474C61.2892 58.0433 61.2088 58.1665 61.1437 58.3172C61.0821 58.4678 61.0513 58.6475 61.0513 58.8564C61.0513 59.0275 61.0855 59.161 61.154 59.2569C61.2259 59.3528 61.3286 59.4007 61.4621 59.4007C61.5169 59.4007 61.5751 59.387 61.6367 59.3596C61.6983 59.3288 61.7634 59.2706 61.8318 59.185C61.9037 59.0994 61.9808 58.9779 62.0629 58.8204C62.1485 58.6629 62.2426 58.4558 62.3453 58.1991C62.2871 57.8978 62.2341 57.5503 62.1862 57.1566C62.1382 56.763 62.1143 56.323 62.1143 55.8369C62.1143 55.6247 62.1211 55.4039 62.1348 55.1745C62.1485 54.9417 62.1708 54.7158 62.2016 54.4967C62.2324 54.2741 62.2735 54.0636 62.3248 53.865C62.3762 53.6665 62.4378 53.4919 62.5097 53.3413C62.585 53.1906 62.6723 53.0725 62.7716 52.9869C62.8708 52.8979 62.9838 52.8534 63.1105 52.8534C63.2234 52.8534 63.3193 52.8842 63.398 52.9459C63.4768 53.0075 63.5401 53.0931 63.588 53.2026C63.6394 53.3122 63.677 53.444 63.701 53.598C63.725 53.7521 63.737 53.9215 63.737 54.1064C63.737 54.5035 63.7027 54.9006 63.6343 55.2977C63.5658 55.6948 63.4802 56.0748 63.3775 56.4377C63.2782 56.8006 63.1721 57.1361 63.0591 57.4442C62.9462 57.7523 62.8434 58.0176 62.751 58.2402ZM63.3518 54.1013C63.3518 54.0157 63.3484 53.9232 63.3416 53.824C63.3381 53.7247 63.3261 53.6322 63.3056 53.5467C63.2885 53.4577 63.2645 53.384 63.2337 53.3259C63.2029 53.2677 63.1618 53.2386 63.1105 53.2386C63.0249 53.2386 62.9444 53.3139 62.8691 53.4645C62.7972 53.6151 62.7339 53.8137 62.6791 54.0602C62.6244 54.3032 62.5798 54.5805 62.5456 54.8921C62.5148 55.2002 62.4994 55.5117 62.4994 55.8266C62.4994 56.1279 62.5114 56.4292 62.5353 56.7304C62.5593 57.0317 62.5867 57.3004 62.6175 57.5366C62.7168 57.273 62.8109 57.0026 62.8999 56.7253C62.9889 56.4446 63.066 56.1587 63.131 55.8677C63.1995 55.5767 63.2525 55.284 63.2902 54.9896C63.3313 54.6918 63.3518 54.3957 63.3518 54.1013ZM78.9471 53.1204C78.7999 53.3361 78.6356 53.5946 78.4542 53.8958C78.2727 54.1971 78.0793 54.5343 77.8739 54.9075C77.6993 55.219 77.5264 55.5511 77.3553 55.9037C77.1875 56.2529 77.0266 56.6003 76.8726 56.9461C76.7185 57.2884 76.5764 57.6188 76.4463 57.9372C76.3163 58.2521 76.2033 58.5311 76.1074 58.7742C76.0116 59.0138 75.9363 59.2073 75.8815 59.3545C75.8267 59.4983 75.7993 59.5719 75.7993 59.5753C75.7651 59.6609 75.7035 59.7037 75.6145 59.7037C75.57 59.7037 75.5306 59.69 75.4964 59.6626C75.4621 59.6318 75.4399 59.5941 75.4296 59.5496C75.4296 59.5462 75.4125 59.4743 75.3782 59.3339C75.3474 59.1901 75.3046 59.0001 75.2499 58.7639C75.1951 58.5243 75.1318 58.2504 75.0599 57.9423C74.9914 57.6308 74.9178 57.3073 74.8391 56.9718C74.7637 56.6329 74.6867 56.2905 74.608 55.9448C74.5292 55.599 74.4556 55.2703 74.3872 54.9588C74.1578 55.6058 73.9267 56.1793 73.6939 56.6791C73.4646 57.1755 73.2283 57.6085 72.9853 57.9783C72.7422 58.3446 72.4906 58.6527 72.2304 58.9026C71.9737 59.1525 71.7032 59.3545 71.4191 59.5085C71.1384 59.6592 70.8422 59.767 70.5307 59.832C70.2226 59.8971 69.8957 59.9296 69.5499 59.9296C69.3719 59.9296 69.1819 59.9091 68.9799 59.868C68.7779 59.8303 68.5776 59.7704 68.3791 59.6883C68.1805 59.6061 67.9905 59.5034 67.8091 59.3801C67.6277 59.2569 67.4668 59.1114 67.3264 58.9437C67.186 58.7725 67.0748 58.5808 66.9926 58.3685C66.9105 58.1529 66.8694 57.9132 66.8694 57.6496C66.8694 57.3723 66.9276 57.119 67.044 56.8896C67.1604 56.6568 67.3178 56.4583 67.5164 56.2939C67.715 56.1262 67.9443 55.9961 68.2045 55.9037C68.4681 55.8112 68.7454 55.765 69.0364 55.765C69.2486 55.765 69.4386 55.7839 69.6064 55.8215C69.7776 55.8557 69.9282 55.9003 70.0583 55.955C70.1884 56.0098 70.2996 56.0697 70.3921 56.1348C70.4845 56.1998 70.5615 56.2597 70.6231 56.3145C70.6848 56.3693 70.7293 56.4172 70.7566 56.4583C70.784 56.4959 70.7994 56.5148 70.8029 56.5148C70.8234 56.5524 70.8337 56.5884 70.8337 56.6226C70.8337 56.6705 70.8148 56.715 70.7772 56.7561C70.743 56.7972 70.6967 56.8177 70.6385 56.8177C70.5701 56.8177 70.5153 56.7886 70.4742 56.7304C70.4708 56.727 70.4434 56.6962 70.3921 56.638C70.3407 56.5764 70.2568 56.5096 70.1404 56.4377C70.024 56.3658 69.8734 56.3008 69.6885 56.2426C69.5071 56.1844 69.2846 56.1553 69.021 56.1553C68.7813 56.1553 68.5537 56.193 68.338 56.2683C68.1258 56.3402 67.9392 56.4429 67.7783 56.5764C67.6208 56.7099 67.4941 56.8691 67.3983 57.0539C67.3059 57.2354 67.2596 57.4356 67.2596 57.6547C67.2596 57.8704 67.2956 58.0673 67.3675 58.2453C67.4394 58.4233 67.5352 58.5825 67.655 58.7229C67.7749 58.8632 67.9135 58.9847 68.071 59.0874C68.2285 59.1901 68.3928 59.2757 68.564 59.3442C68.7351 59.4092 68.9063 59.4589 69.0775 59.4931C69.2521 59.5239 69.4164 59.5393 69.5704 59.5393C69.8306 59.5393 70.0839 59.5205 70.3304 59.4828C70.5803 59.4418 70.8251 59.3665 71.0648 59.2569C71.3078 59.1474 71.5457 58.9967 71.7785 58.805C72.0113 58.6133 72.2424 58.3634 72.4718 58.0553C72.7011 57.7472 72.9271 57.3757 73.1496 56.941C73.3756 56.5062 73.6015 55.9927 73.8274 55.4004C73.8959 55.2224 73.9627 55.0307 74.0277 54.8253C74.0928 54.6199 74.1595 54.4128 74.228 54.204C74.1698 53.9027 74.127 53.6459 74.0996 53.4337C74.0756 53.2214 74.0637 53.0451 74.0637 52.9048C74.0637 52.7541 74.0756 52.6343 74.0996 52.5453C74.1236 52.4563 74.1544 52.3896 74.192 52.345C74.2297 52.2971 74.2708 52.268 74.3153 52.2577C74.3598 52.2441 74.4026 52.2372 74.4437 52.2372C74.4779 52.2372 74.5155 52.2441 74.5566 52.2577C74.6011 52.2714 74.6405 52.3023 74.6747 52.3502C74.7124 52.3947 74.7432 52.4614 74.7672 52.5505C74.7911 52.6395 74.8031 52.7593 74.8031 52.9099C74.8031 53.0742 74.7877 53.2642 74.7569 53.4799C74.7261 53.6956 74.6799 53.9335 74.6182 54.1937C74.6628 54.4025 74.7141 54.6353 74.7723 54.8921C74.8305 55.1488 74.8904 55.4158 74.952 55.6931C75.0137 55.967 75.077 56.2477 75.142 56.5353C75.2071 56.8229 75.2704 57.1036 75.332 57.3775C75.3936 57.6513 75.4518 57.9132 75.5066 58.1631C75.5648 58.413 75.6179 58.639 75.6658 58.841C75.7582 58.6082 75.8712 58.3274 76.0047 57.9988C76.1382 57.6667 76.2872 57.3158 76.4515 56.9461C76.6158 56.573 76.7887 56.1947 76.9701 55.8112C77.155 55.4244 77.3433 55.0598 77.535 54.7175C77.8054 54.2313 78.0536 53.8154 78.2796 53.4696C78.5055 53.1204 78.7007 52.8329 78.865 52.6069C79.0293 52.381 79.1577 52.215 79.2501 52.1088C79.346 51.9993 79.3973 51.9394 79.4042 51.9291C79.4418 51.8914 79.488 51.8726 79.5428 51.8726C79.601 51.8726 79.6472 51.8932 79.6815 51.9342C79.7191 51.9719 79.738 52.0164 79.738 52.0678C79.738 52.0917 79.7328 52.1157 79.7225 52.1396C79.7225 52.1431 79.702 52.1944 79.6609 52.2937C79.6233 52.3896 79.5736 52.5231 79.512 52.6942C79.4538 52.862 79.3888 53.0605 79.3169 53.2899C79.245 53.5159 79.1748 53.7606 79.1063 54.0242C79.0379 54.2844 78.9762 54.5583 78.9215 54.8458C78.8701 55.13 78.8325 55.4141 78.8085 55.6983C78.7982 55.8284 78.7897 55.9653 78.7828 56.1091C78.776 56.2494 78.7725 56.3915 78.7725 56.5353C78.7725 56.7612 78.7828 56.9889 78.8034 57.2183C78.8239 57.4476 78.8581 57.6684 78.9061 57.8807C78.954 58.0929 79.019 58.2932 79.1012 58.4815C79.1834 58.6664 79.2843 58.829 79.4042 58.9693C79.524 59.1097 79.6661 59.2227 79.8304 59.3083C79.9981 59.3938 80.1916 59.4401 80.4106 59.4469C80.4654 59.4503 80.5082 59.4743 80.539 59.5188C80.5733 59.5599 80.5904 59.6044 80.5904 59.6523C80.5904 59.7002 80.5715 59.743 80.5339 59.7807C80.4962 59.8183 80.4517 59.8372 80.4004 59.8372C80.3456 59.8372 80.2908 59.832 80.2361 59.8218C79.9896 59.7875 79.7722 59.7173 79.5839 59.6112C79.3956 59.5017 79.233 59.3682 79.0961 59.2107C78.9591 59.0498 78.8444 58.8683 78.752 58.6664C78.663 58.461 78.5911 58.2419 78.5363 58.0091C78.4816 57.7763 78.4422 57.5349 78.4182 57.285C78.3977 57.0317 78.3874 56.7766 78.3874 56.5199C78.3874 56.2152 78.4028 55.9105 78.4336 55.6058C78.4644 55.3012 78.5055 55.005 78.5569 54.7175C78.6082 54.4265 78.6681 54.1458 78.7366 53.8753C78.8051 53.6049 78.8753 53.3532 78.9471 53.1204ZM83.2555 59.1696C83.1699 59.1696 83.0946 59.1628 83.0296 59.1491C82.9782 59.2518 82.9166 59.3476 82.8447 59.4366C82.7728 59.5222 82.6889 59.5975 82.5931 59.6626C82.5006 59.7276 82.3962 59.779 82.2798 59.8166C82.1634 59.8543 82.0368 59.8731 81.8998 59.8731C81.7389 59.8731 81.5917 59.844 81.4582 59.7858C81.3247 59.731 81.2083 59.654 81.109 59.5547C81.0097 59.452 80.9327 59.3305 80.8779 59.1901C80.8232 59.0464 80.7958 58.8889 80.7958 58.7177C80.7958 58.4986 80.8352 58.3086 80.9139 58.1477C80.9926 57.9834 81.0834 57.8482 81.1861 57.742C81.2888 57.6325 81.3915 57.552 81.4942 57.5007C81.5969 57.4459 81.6739 57.4185 81.7252 57.4185C81.7834 57.4185 81.8262 57.4339 81.8536 57.4647C81.8844 57.4956 81.8998 57.5366 81.8998 57.588C81.8998 57.6462 81.881 57.6907 81.8433 57.7215C81.8091 57.7489 81.7646 57.7763 81.7098 57.8037C81.6551 57.8311 81.5969 57.8704 81.5352 57.9218C81.4736 57.9697 81.4154 58.0313 81.3606 58.1066C81.3093 58.182 81.2665 58.271 81.2323 58.3737C81.198 58.4764 81.1809 58.591 81.1809 58.7177C81.1809 58.8307 81.198 58.9368 81.2323 59.0361C81.2665 59.1319 81.3161 59.2158 81.3812 59.2877C81.4462 59.3562 81.5233 59.411 81.6123 59.452C81.7013 59.4897 81.8006 59.5085 81.9101 59.5085C82.1052 59.5085 82.2661 59.464 82.3928 59.375C82.5229 59.2826 82.6222 59.1662 82.6906 59.0258C82.4887 58.9197 82.3226 58.7691 82.1925 58.5739C82.0624 58.3788 81.9974 58.1597 81.9974 57.9166C81.9974 57.7215 82.0436 57.5623 82.1361 57.4391C82.2319 57.3158 82.3569 57.2542 82.5109 57.2542C82.6033 57.2542 82.6906 57.2765 82.7728 57.321C82.855 57.3655 82.9269 57.4356 82.9885 57.5315C83.0535 57.6274 83.1049 57.7506 83.1425 57.9012C83.1802 58.0519 83.199 58.2316 83.199 58.4404C83.199 58.55 83.1853 58.6647 83.1579 58.7845C83.1785 58.7879 83.199 58.7896 83.2196 58.7896C83.2401 58.7896 83.2624 58.7896 83.2863 58.7896C83.4027 58.7896 83.5071 58.7759 83.5996 58.7485C83.692 58.7211 83.7759 58.6801 83.8512 58.6253C83.9265 58.5705 83.9932 58.5003 84.0514 58.4147C84.1131 58.3292 84.1713 58.2299 84.226 58.1169C84.2363 58.0964 84.2586 58.0775 84.2928 58.0604C84.327 58.0399 84.3613 58.0296 84.3955 58.0296C84.44 58.0296 84.4811 58.0484 84.5187 58.0861C84.5598 58.1203 84.5804 58.1665 84.5804 58.2247C84.5804 58.2521 84.5735 58.2829 84.5598 58.3172C84.5461 58.348 84.5324 58.3771 84.5187 58.4045C84.4605 58.5072 84.3921 58.6065 84.3133 58.7023C84.238 58.7947 84.1473 58.8769 84.0412 58.9488C83.9385 59.0173 83.8221 59.072 83.692 59.1131C83.5619 59.1542 83.4164 59.173 83.2555 59.1696ZM82.3774 57.8756C82.3774 57.9406 82.386 58.0091 82.4031 58.081C82.4202 58.1529 82.4459 58.2247 82.4801 58.2966C82.5178 58.3651 82.5623 58.4319 82.6136 58.4969C82.6684 58.5585 82.7317 58.6116 82.8036 58.6561C82.8139 58.5842 82.819 58.514 82.819 58.4456C82.819 58.3531 82.8122 58.259 82.7985 58.1631C82.7848 58.0673 82.7642 57.98 82.7369 57.9012C82.7129 57.8191 82.6821 57.754 82.6444 57.7061C82.6068 57.6547 82.5623 57.6291 82.5109 57.6291C82.4904 57.6291 82.463 57.6445 82.4288 57.6753C82.3945 57.7061 82.3774 57.7729 82.3774 57.8756ZM84.755 57.6239C84.7413 57.7164 84.7241 57.8037 84.7036 57.8858C84.6831 57.9646 84.6625 58.0347 84.642 58.0964C84.6249 58.1546 84.6095 58.2025 84.5958 58.2402C84.5821 58.2778 84.5735 58.2983 84.5701 58.3018C84.5359 58.3805 84.4759 58.4199 84.3904 58.4199C84.3424 58.4199 84.2979 58.4028 84.2568 58.3685C84.2158 58.3309 84.1952 58.2847 84.1952 58.2299C84.1952 58.2093 84.1986 58.1939 84.2055 58.1837C84.2123 58.1734 84.2226 58.1529 84.2363 58.122C84.25 58.0912 84.2671 58.0399 84.2877 57.968C84.3082 57.8961 84.3339 57.7848 84.3647 57.6342C84.3065 57.6342 84.2466 57.6325 84.185 57.6291C84.1233 57.6256 84.0668 57.6137 84.0155 57.5931C83.9607 57.5726 83.9162 57.5401 83.882 57.4956C83.8477 57.4511 83.8306 57.3894 83.8306 57.3107C83.8306 57.2525 83.8477 57.1738 83.882 57.0745C83.9128 56.9752 83.9556 56.8776 84.0104 56.7818C84.0651 56.6859 84.1268 56.6038 84.1952 56.5353C84.2637 56.4634 84.3322 56.4275 84.4006 56.4275C84.4794 56.4275 84.5427 56.4566 84.5906 56.5148C84.642 56.573 84.6813 56.6448 84.7087 56.7304C84.7361 56.8126 84.755 56.8999 84.7652 56.9923C84.7789 57.0848 84.7858 57.1652 84.7858 57.2337C84.844 57.2337 84.9004 57.2337 84.9552 57.2337C85.0134 57.2302 85.0682 57.2285 85.1195 57.2285C85.3147 57.2285 85.4636 57.2713 85.5663 57.3569C85.669 57.4425 85.7204 57.5829 85.7204 57.778C85.7204 57.8567 85.7152 57.9389 85.7049 58.0245C85.6947 58.1101 85.6827 58.1991 85.669 58.2915C85.6553 58.3805 85.6433 58.4695 85.6331 58.5585C85.6228 58.6475 85.6176 58.7348 85.6176 58.8204C85.6176 58.9437 85.6348 59.0464 85.669 59.1285C85.7032 59.2073 85.746 59.2706 85.7974 59.3185C85.8487 59.3665 85.9035 59.4007 85.9617 59.4212C86.0199 59.4383 86.073 59.4469 86.1209 59.4469C86.2681 59.4469 86.4067 59.399 86.5368 59.3031C86.6669 59.2073 86.7867 59.0926 86.8963 58.9591C87.0058 58.8221 87.1034 58.6783 87.189 58.5277C87.278 58.3771 87.3516 58.2453 87.4098 58.1323C87.4269 58.1015 87.4509 58.0775 87.4817 58.0604C87.5125 58.0433 87.545 58.0347 87.5793 58.0347C87.6409 58.0347 87.6888 58.0553 87.723 58.0964C87.7573 58.134 87.7744 58.1768 87.7744 58.2247C87.7744 58.259 87.7675 58.2898 87.7539 58.3172C87.6751 58.4575 87.5827 58.6167 87.4766 58.7947C87.3739 58.9693 87.2557 59.1337 87.1222 59.2877C86.9887 59.4418 86.8381 59.5719 86.6703 59.678C86.506 59.7841 86.3246 59.8372 86.126 59.8372C86.0028 59.8372 85.8864 59.8132 85.7768 59.7653C85.6673 59.7208 85.5714 59.6557 85.4893 59.5701C85.4105 59.4811 85.3472 59.3733 85.2993 59.2466C85.2513 59.1165 85.2274 58.971 85.2274 58.8101C85.2274 58.639 85.2445 58.4695 85.2787 58.3018C85.313 58.1306 85.3301 57.968 85.3301 57.8139C85.3301 57.7489 85.3147 57.701 85.2839 57.6702C85.2565 57.6359 85.1931 57.6188 85.0939 57.6188C85.0459 57.6188 84.9929 57.6188 84.9347 57.6188C84.8799 57.6188 84.82 57.6205 84.755 57.6239ZM84.4109 57.2439C84.4109 57.22 84.4092 57.1892 84.4058 57.1515C84.4058 57.1104 84.4023 57.0711 84.3955 57.0334C84.3921 56.9957 84.3852 56.9632 84.375 56.9358C84.3681 56.9084 84.3595 56.8948 84.3493 56.8948C84.339 56.8948 84.3253 56.9084 84.3082 56.9358C84.2945 56.9598 84.2791 56.9906 84.262 57.0283C84.2449 57.0625 84.2295 57.1002 84.2158 57.1412C84.2021 57.1823 84.1918 57.2166 84.185 57.2439H84.4109ZM88.026 59.1696C88.0979 59.2689 88.1903 59.3493 88.3033 59.411C88.4163 59.4692 88.5549 59.4983 88.7193 59.4983C88.887 59.4983 89.0393 59.4589 89.1763 59.3801C89.3132 59.298 89.4382 59.1919 89.5511 59.0618C89.6641 58.9317 89.7651 58.7862 89.8541 58.6253C89.9431 58.4644 90.0236 58.3035 90.0955 58.1426C90.1126 58.1049 90.1365 58.0775 90.1674 58.0604C90.1982 58.0399 90.2324 58.0296 90.2701 58.0296C90.3283 58.0296 90.3745 58.0502 90.4087 58.0912C90.4464 58.1323 90.4652 58.1768 90.4652 58.2247C90.4652 58.2419 90.4635 58.2573 90.4601 58.271C90.4566 58.2812 90.4515 58.2932 90.4447 58.3069C90.2084 58.8273 89.95 59.2192 89.6692 59.4828C89.392 59.7464 89.077 59.8817 88.7244 59.8885C88.4984 59.8885 88.3033 59.844 88.139 59.755C87.9747 59.6694 87.8394 59.5582 87.7333 59.4212C87.6272 59.2809 87.5485 59.1234 87.4971 58.9488C87.4457 58.7742 87.4201 58.5996 87.4201 58.425C87.4201 58.2504 87.4406 58.0895 87.4817 57.9423C87.5262 57.7951 87.5878 57.6667 87.6666 57.5572C87.7487 57.4476 87.8446 57.362 87.9541 57.3004C88.0671 57.2388 88.1903 57.208 88.3239 57.208C88.4026 57.208 88.4796 57.2251 88.5549 57.2593C88.6337 57.2902 88.7038 57.3364 88.7655 57.398C88.8271 57.4562 88.8767 57.5281 88.9144 57.6137C88.952 57.6993 88.9709 57.7968 88.9709 57.9064C88.9709 58.0467 88.9469 58.1785 88.899 58.3018C88.8511 58.425 88.7843 58.5397 88.6987 58.6458C88.6166 58.7519 88.5173 58.8495 88.4009 58.9385C88.2845 59.0275 88.1595 59.1046 88.026 59.1696ZM87.872 58.8358C87.9781 58.7913 88.0739 58.7348 88.1595 58.6664C88.2485 58.5979 88.3239 58.5226 88.3855 58.4404C88.4471 58.3583 88.495 58.2727 88.5293 58.1837C88.5635 58.0912 88.5806 57.9988 88.5806 57.9064C88.5806 57.8037 88.5549 57.7266 88.5036 57.6753C88.4522 57.6205 88.3923 57.5931 88.3239 57.5931C88.2314 57.5931 88.1527 57.6188 88.0876 57.6702C88.0226 57.7215 87.9695 57.7883 87.9284 57.8704C87.8874 57.9526 87.8566 58.045 87.836 58.1477C87.8189 58.247 87.8103 58.3463 87.8103 58.4456C87.8103 58.5072 87.8155 58.5722 87.8257 58.6407C87.8394 58.7092 87.8548 58.7742 87.872 58.8358Z" fill="#4A1B18"/>
</svg>
